HIERARCHY
ROOT hip
{
  OFFSET 0 0 0
  CHANNELS 6 Xposition Yposition Zposition Zrotation Yrotation Xrotation
  JOINT abdomen
  {
    OFFSET 0 20.6881 -0.73152
    CHANNELS 3 Zrotation Xrotation Yrotation
    JOINT chest
    {
      OFFSET 0 11.7043 -0.48768
      CHANNELS 3 Zrotation Xrotation Yrotation
      JOINT neck
      {
        OFFSET 0 22.1894 -2.19456
        CHANNELS 3 Zrotation Xrotation Yrotation
        JOINT head
        {
          OFFSET -0.24384 7.07133 1.2192
          CHANNELS 3 Zrotation Xrotation Yrotation
          JOINT leftEye
          {
            OFFSET 4.14528 8.04674 8.04672
            CHANNELS 3 Zrotation Xrotation Yrotation
            End Site
            {
              OFFSET 1 0 0
            }
          }
          JOINT rightEye
          {
            OFFSET -3.6576 8.04674 8.04672
            CHANNELS 3 Zrotation Xrotation Yrotation
            End Site
            {
              OFFSET 1 0 0
            }
          }
        }
      }
      JOINT rCollar
      {
        OFFSET -2.68224 19.2634 -4.8768
        CHANNELS 3 Zrotation Xrotation Yrotation
        JOINT rShldr
        {
          OFFSET -8.77824 -1.95073 1.46304
          CHANNELS 3 Zrotation Xrotation Yrotation
          JOINT rForeArm
          {
            OFFSET -28.1742 -1.7115 0.48768
            CHANNELS 3 Zrotation Xrotation Yrotation
            JOINT rHand
            {
              OFFSET -22.5879 0.773209 7.07136
              CHANNELS 3 Zrotation Xrotation Yrotation
              JOINT rThumb1
              {
                OFFSET -1.2192 -0.487915 3.41376
                CHANNELS 3 Zrotation Xrotation Yrotation
                JOINT rThumb2
                {
                  OFFSET -3.37035 -0.52449 3.41376
                  CHANNELS 3 Zrotation Xrotation Yrotation
                  End Site
                  {
                    OFFSET -1.78271 -1.18214 1.43049
                  }
                }
              }
              JOINT rIndex1
              {
                OFFSET -7.75947 0.938293 5.60832
                CHANNELS 3 Zrotation Xrotation Yrotation
                JOINT rIndex2
                {
                  OFFSET -2.54057 -0.884171 1.56538
                  CHANNELS 3 Zrotation Xrotation Yrotation
                  End Site
                  {
                    OFFSET -1.62519 -0.234802 1.16502
                  }
                }
              }
              JOINT rMid1
              {
                OFFSET -8.24714 1.18213 3.41376
                CHANNELS 3 Zrotation Xrotation Yrotation
                JOINT rMid2
                {
                  OFFSET -3.10165 -0.590103 1.0647
                  CHANNELS 3 Zrotation Xrotation Yrotation
                  End Site
                  {
                    OFFSET -2.48547 -0.328903 0.83742
                  }
                }
              }
              JOINT rRing1
              {
                OFFSET -8.82822 0.546677 1.51678
                CHANNELS 3 Zrotation Xrotation Yrotation
                JOINT rRing2
                {
                  OFFSET -2.60934 -0.819778 -0.0198488
                  CHANNELS 3 Zrotation Xrotation Yrotation
                  End Site
                  {
                    OFFSET -2.33842 -0.294052 0.168128
                  }
                }
              }
              JOINT rPinky1
              {
                OFFSET -8.27202 -0.0477905 -0.4584
                CHANNELS 3 Zrotation Xrotation Yrotation
                JOINT rPinky2
                {
                  OFFSET -1.82734 -0.647385 -0.700984
                  CHANNELS 3 Zrotation Xrotation Yrotation
                  End Site
                  {
                    OFFSET -1.69225 -0.51767 -0.607171
                  }
                }
              }
            }
          }
        }
      }
      JOINT lCollar
      {
        OFFSET 2.68224 19.2634 -4.8768
        CHANNELS 3 Zrotation Xrotation Yrotation
        JOINT lShldr
        {
          OFFSET 8.77824 -1.95073 1.46304
          CHANNELS 3 Zrotation Xrotation Yrotation
          JOINT lForeArm
          {
            OFFSET 28.1742 -1.7115 0.48768
            CHANNELS 3 Zrotation Xrotation Yrotation
            JOINT lHand
            {
              OFFSET 22.5879 0.773209 7.07136
              CHANNELS 3 Zrotation Xrotation Yrotation
              JOINT lThumb1
              {
                OFFSET 1.2192 -0.487915 3.41376
                CHANNELS 3 Zrotation Xrotation Yrotation
                JOINT lThumb2
                {
                  OFFSET 3.37035 -0.52449 3.41376
                  CHANNELS 3 Zrotation Xrotation Yrotation
                  End Site
                  {
                    OFFSET 1.78271 -1.18214 1.43049
                  }
                }
              }
              JOINT lIndex1
              {
                OFFSET 7.75947 0.938293 5.60832
                CHANNELS 3 Zrotation Xrotation Yrotation
                JOINT lIndex2
                {
                  OFFSET 2.54057 -0.884171 1.56538
                  CHANNELS 3 Zrotation Xrotation Yrotation
                  End Site
                  {
                    OFFSET 1.62519 -0.234802 1.16502
                  }
                }
              }
              JOINT lMid1
              {
                OFFSET 8.24714 1.18213 3.41376
                CHANNELS 3 Zrotation Xrotation Yrotation
                JOINT lMid2
                {
                  OFFSET 3.10165 -0.590103 1.0647
                  CHANNELS 3 Zrotation Xrotation Yrotation
                  End Site
                  {
                    OFFSET 2.48547 -0.328903 0.83742
                  }
                }
              }
              JOINT lRing1
              {
                OFFSET 8.82822 0.546677 1.51678
                CHANNELS 3 Zrotation Xrotation Yrotation
                JOINT lRing2
                {
                  OFFSET 2.60934 -0.819778 -0.0198488
                  CHANNELS 3 Zrotation Xrotation Yrotation
                  End Site
                  {
                    OFFSET 2.33842 -0.294052 0.168128
                  }
                }
              }
              JOINT lPinky1
              {
                OFFSET 8.27202 -0.0477905 -0.4584
                CHANNELS 3 Zrotation Xrotation Yrotation
                JOINT lPinky2
                {
                  OFFSET 1.82734 -0.647385 -0.700984
                  CHANNELS 3 Zrotation Xrotation Yrotation
                  End Site
                  {
                    OFFSET 1.69225 -0.51767 -0.607171
                  }
                }
              }
            }
          }
        }
      }
    }
  }
  JOINT rButtock
  {
    OFFSET -8.77824 4.35084 1.2192
    CHANNELS 3 Zrotation Xrotation Yrotation
    JOINT rThigh
    {
      OFFSET 0 -1.70687 -2.19456
      CHANNELS 3 Zrotation Xrotation Yrotation
      JOINT rShin
      {
        OFFSET 0 -36.8199 0.73152
        CHANNELS 3 Zrotation Xrotation Yrotation
        JOINT rFoot
        {
          OFFSET 0.73152 -45.1104 -5.12064
          CHANNELS 3 Zrotation Xrotation Yrotation
          End Site
          {
            OFFSET -1.1221 -3.69964 12.103
          }
        }
      }
    }
  }
  JOINT lButtock
  {
    OFFSET 8.77824 4.35084 1.2192
    CHANNELS 3 Zrotation Xrotation Yrotation
    JOINT lThigh
    {
      OFFSET 0 -1.70687 -2.19456
      CHANNELS 3 Zrotation Xrotation Yrotation
      JOINT lShin
      {
        OFFSET 0 -36.8199 0.73152
        CHANNELS 3 Zrotation Xrotation Yrotation
        JOINT lFoot
        {
          OFFSET -0.73152 -45.1104 -5.12064
          CHANNELS 3 Zrotation Xrotation Yrotation
          End Site
          {
            OFFSET 1.1221 -3.69964 12.103
          }
        }
      }
    }
  }
}
MOTION
Frames:	4
Frame Time:	0.00833333
6.963164 0.429625 -22.386667 -6.936958 -56.149204 4.585516 -3.432296 14.441999 16.737106 -2.164786 -12.612686 4.163294 -1.388074 13.216719 8.924673 8.462193 -20.705498 18.818327 0.017469 -0.292314 -0.134133 0.184408 0.0205 -0.110731 0.103921 -0.032077 0.331895 28.016735 79.209785 41.740433 -26.31592 -46.056538 95.02077 -38.146973 -79.790985 -45.92744 0.091604 -9.7e-05 -0.187749 0.053618 -0.004693 -0.094869 -0.117516 -0.015941 -0.251507 7.863835 5.404896 0.272598 -0.108718 -0.131524 0.024108 3.107062 0.848444 0.068372 -0.09746 -0.044427 0.237372 10.055345 0.840522 -0.028431 -0.250175 -0.087741 0.044924 2.052316 -0.884129 -0.076729 -0.197702 -0.011136 0.171538 -62.321537 4.758908 -34.675304 28.819208 -34.491047 -75.14533 0.890131 21.247845 -2.958283 0.009703 -0.071498 -0.054501 0.110528 0.099985 -0.145477 0.269626 0.181932 0.131043 -7.60667 5.397386 -0.622392 0.018549 0.085944 -0.144493 -3.052343 1.005074 -0.156913 0.146809 0.148143 -9.6e-05 -10.05629 0.887763 0.003664 -0.160724 -0.00884 0.102426 -2.280302 -0.702207 0.235041 0.003682 0.175845 0.238519 -28.922054 -33.071507 -33.620777 -7.024574 84.65588 9.740716 -12.445723 -26.436047 -24.334116 -0.26661 -0.050234 -0.222718 59.55689 -43.003567 58.097145 1.861377 67.07567 -2.397983 -0.086975 6.340264 -1.572183
6.868416 0.418356 -22.509443 -7.738474 -56.030266 5.780726 -3.056472 14.211034 16.613451 -2.070959 -12.618968 4.184075 -1.393848 13.327836 9.045079 8.469699 -20.88105 18.93033 -0.022843 -0.262198 -0.124574 0.159148 -0.006718 -0.118017 0.082077 -0.02088 0.277517 29.134457 79.314026 40.390865 -26.271206 -46.093094 95.14023 -38.945755 -79.99604 -46.71377 0.032531 -9.7e-05 -0.171894 0.030033 0.034495 -0.11624 -0.077642 0.016861 -0.230364 7.874685 5.395572 0.29599 -0.112431 -0.115838 0.051129 3.094033 0.87419 0.13977 -0.108998 -0.03268 0.220605 10.077004 0.850483 -0.048325 -0.229621 -0.106422 0.079613 2.015972 -0.900915 -0.069171 -0.228914 0.024952 0.14677 -62.79671 4.362757 -34.79821 28.849934 -34.52438 -75.251656 0.738607 20.994684 -2.744528 -0.013884 -0.067994 -0.132486 0.078936 0.100066 -0.155803 0.237578 0.209466 0.113872 -7.608482 5.36972 -0.603076 0.019437 0.0681 -0.117037 -3.02214 0.96026 -0.110949 0.133858 0.082048 -0.033675 -10.086136 0.90816 -0.036956 -0.160462 -0.007948 0.134851 -2.277177 -0.696171 0.195502 -0.010929 0.131236 0.246305 -29.129005 -32.528133 -33.94309 -6.411762 84.30991 9.039992 -12.199355 -26.259472 -23.878677 -0.223787 -0.043818 -0.213526 60.38198 -43.035187 59.03635 1.746383 67.37312 -2.321003 -0.060563 5.853645 -1.680978
6.771852 0.426489 -22.627928 -8.420996 -55.8572 6.697838 -2.699697 13.991882 16.47522 -2.007112 -12.590733 4.218741 -1.392852 13.418656 9.117168 8.449688 -21.074112 18.955711 -0.050544 -0.236443 -0.115527 0.139237 -0.011946 -0.11109 0.068769 0.0009 0.228266 29.874517 79.49548 39.392685 -26.234556 -46.13807 95.282906 -39.4349 -80.134834 -47.190746 0.001215 0.006499 -0.147657 0.015415 0.085656 -0.107809 -0.052693 0.041005 -0.197954 7.876398 5.388152 0.314921 -0.113759 -0.09692 0.072977 3.077478 0.901596 0.209137 -0.100807 -0.011706 0.193674 10.107123 0.856321 -0.06995 -0.207456 -0.121515 0.105133 2.003662 -0.900233 -0.06729 -0.252874 0.058939 0.134157 -63.048767 4.154916 -34.978176 28.849518 -34.527664 -75.31965 0.658583 20.89095 -2.621258 -0.034541 -0.066109 -0.21433 0.042455 0.100736 -0.155598 0.194097 0.230271 0.086334 -7.605014 5.335891 -0.569007 0.023201 0.063335 -0.087541 -2.993198 0.921114 -0.075415 0.127985 0.030526 -0.053971 -10.117476 0.920776 -0.0764 -0.168073 -0.005114 0.157632 -2.274454 -0.686412 0.155098 -0.032087 0.082279 0.253007 -29.259403 -31.999912 -34.076454 -5.86832 83.93222 8.43517 -11.970257 -26.137066 -23.483946 -0.181697 -0.038296 -0.204956 61.03858 -43.09396 59.753277 1.663355 67.609634 -2.240168 -0.060332 5.399459 -1.730595
6.67788 0.458765 -22.733114 -9.002943 -55.66867 7.345466 -2.374152 13.778537 16.338541 -1.9719 -12.541114 4.257972 -1.380878 13.483256 9.13868 8.40661 -21.277786 18.909218 -0.066335 -0.218801 -0.109198 0.123135 -0.002107 -0.095636 0.066294 0.026553 0.188439 30.417883 79.695274 38.59565 -26.212023 -46.182343 95.422554 -39.688114 -80.215744 -47.43653 -0.016541 0.012591 -0.121067 0.010571 0.134747 -0.075748 -0.045691 0.054861 -0.161693 7.87344 5.374154 0.329958 -0.113457 -0.077992 0.08824 3.059076 0.925976 0.26778 -0.081135 0.010912 0.161944 10.132909 0.855196 -0.090395 -0.184536 -0.126998 0.118951 2.012305 -0.887539 -0.06994 -0.270567 0.085595 0.13006 -63.15209 4.071069 -35.218708 28.813822 -34.495186 -75.31184 0.668858 20.918291 -2.63024 -0.047089 -0.069035 -0.284805 0.008923 0.097594 -0.14618 0.145686 0.239002 0.058641 -7.597548 5.299258 -0.530644 0.027801 0.062464 -0.060367 -2.970318 0.89177 -0.055922 0.129651 -0.000725 -0.062762 -10.141119 0.926944 -0.112913 -0.177805 -0.001156 0.17132 -2.270516 -0.676745 0.124969 -0.048112 0.030845 0.25841 -29.304022 -31.537186 -34.073013 -5.394924 83.53827 7.960468 -11.752479 -26.0612 -23.16051 -0.141209 -0.029998 -0.1969 61.56484 -43.16203 60.271942 1.614314 67.80708 -2.169752 -0.075647 4.979193 -1.756384
